<svg width="30" height="30" viewBox="0 0 30 30" fill="none" xmlns="http://www.w3.org/2000/svg">
<g clip-path="url(#clip0_11_2)">
<path d="M14.9995 0.534897C6.84215 0.534897 0.227272 7.17451 0.227272 15.3672C0.227272 21.9192 4.45942 27.4785 10.3318 29.4394C11.07 29.5762 11.3392 29.1183 11.3392 28.7246C11.3392 28.3729 11.3264 27.4403 11.3193 26.2023C7.20905 27.0996 6.34225 24.2142 6.34225 24.2142C5.67125 22.5005 4.70295 22.0454 4.70295 22.0454C3.36099 21.1248 4.80396 21.1424 4.80396 21.1424C6.286 21.2467 7.0661 22.6716 7.0661 22.6716C8.38515 24.938 10.5248 24.2828 11.3664 23.903C11.4993 22.9452 11.882 22.2908 12.3038 21.9206C9.0242 21.5455 5.57595 20.2741 5.57595 14.5914C5.57595 12.9726 6.15115 11.6483 7.09615 10.6104C6.94315 10.2353 6.4366 8.72806 7.24005 6.68656C7.24005 6.68656 8.48095 6.28816 11.3026 8.20671C12.481 7.87791 13.7448 7.71351 15.0014 7.70681C16.2552 7.71351 17.52 7.87741 18.7003 8.20671C21.5196 6.28816 22.7586 6.68656 22.7586 6.68656C23.5639 8.72806 23.0573 10.2353 22.9048 10.6104C23.8522 11.6483 24.424 12.9721 24.424 14.5914C24.424 20.2884 20.9701 21.5418 17.6791 21.9096C18.2095 22.3676 18.6817 23.272 18.6817 24.6564C18.6817 26.6398 18.6641 28.2381 18.6641 28.7246C18.6641 29.1221 18.9305 29.5838 19.6796 29.4375C25.5444 27.4727 29.7728 21.9173 29.7728 15.3672C29.7728 7.17451 23.1579 0.534897 14.9995 0.534897Z" fill="white"/>
<path d="M14.9995 0.534897C6.84215 0.534897 0.227272 7.17451 0.227272 15.3672C0.227272 21.9192 4.45942 27.4785 10.3318 29.4394C11.07 29.5762 11.3392 29.1183 11.3392 28.7246C11.3392 28.3729 11.3264 27.4403 11.3193 26.2023C7.20905 27.0996 6.34225 24.2142 6.34225 24.2142C5.67125 22.5005 4.70295 22.0454 4.70295 22.0454C3.36099 21.1248 4.80396 21.1424 4.80396 21.1424C6.286 21.2467 7.0661 22.6716 7.0661 22.6716C8.38515 24.938 10.5248 24.2828 11.3664 23.903C11.4993 22.9452 11.882 22.2908 12.3038 21.9206C9.0242 21.5455 5.57595 20.2741 5.57595 14.5914C5.57595 12.9726 6.15115 11.6483 7.09615 10.6104C6.94315 10.2353 6.4366 8.72806 7.24005 6.68656C7.24005 6.68656 8.48095 6.28816 11.3026 8.20671C12.481 7.87791 13.7448 7.71351 15.0014 7.70681C16.2552 7.71351 17.52 7.87741 18.7003 8.20671C21.5196 6.28816 22.7586 6.68656 22.7586 6.68656C23.5639 8.72806 23.0573 10.2353 22.9048 10.6104C23.8522 11.6483 24.424 12.9721 24.424 14.5914C24.424 20.2884 20.9701 21.5418 17.6791 21.9096C18.2095 22.3676 18.6817 23.272 18.6817 24.6564C18.6817 26.6398 18.6641 28.2381 18.6641 28.7246C18.6641 29.1221 18.9305 29.5838 19.6796 29.4375C25.5444 27.4727 29.7728 21.9173 29.7728 15.3672C29.7728 7.17451 23.1579 0.534897 14.9995 0.534897Z" fill="white"/>
<path d="M22.7733 6.72784C23.5553 8.74739 23.0564 10.238 22.9044 10.6102C23.8517 11.6481 24.4236 12.9719 24.4236 14.5912C24.4236 20.2882 20.9696 21.5415 17.6786 21.9094C18.209 22.3674 18.6812 23.2718 18.6812 24.6562C18.6812 26.6396 18.6637 28.2379 18.6637 28.7244C18.6637 29.1218 18.93 29.5836 19.6791 29.4373C25.5444 27.4726 29.7728 21.9171 29.7728 15.367C29.7728 13.6062 29.4658 11.9183 28.9049 10.3514C26.8682 8.20704 24.6013 6.77879 22.7733 6.72784Z" fill="white"/>
<path d="M11.7224 22.7035C11.8882 22.3689 12.0908 22.1088 12.3038 21.9205C10.5063 21.7147 8.66015 21.2348 7.35675 19.9105C8.3594 21.5793 9.99205 22.3384 11.7224 22.7035Z" fill="white"/>
<path d="M0.99641 16.367C0.99641 8.17431 7.61125 1.53467 15.7687 1.53467C20.2982 1.53467 24.3497 3.58332 27.0588 6.80571C24.383 3.01242 19.9808 0.534897 14.9995 0.534897C6.84215 0.534897 0.227272 7.17451 0.227272 15.3672C0.227272 19.0199 1.5449 22.3618 3.72698 24.9452C2.01096 22.5229 0.99641 19.5655 0.99641 16.367Z" fill="white"/>
<path d="M19.4504 25.6567C19.4504 24.2728 18.9782 23.3669 18.4478 22.9089C21.7387 22.542 25.1932 21.2877 25.1932 15.5912C25.1932 13.9719 24.6213 12.6486 23.673 11.6107C23.8265 11.2356 24.334 9.7278 23.5268 7.68675C23.5268 7.68675 23.3733 7.63965 23.0564 7.65775C23.4024 9.19695 23.0316 10.2978 22.9044 10.6104C23.8517 11.6483 24.4236 12.9721 24.4236 14.5914C24.4236 20.2884 20.9696 21.5417 17.6786 21.9096C18.209 22.3676 18.6812 23.272 18.6812 24.6563C18.6812 26.6397 18.6637 28.238 18.6637 28.7246C18.6637 29.0743 18.8719 29.4732 19.4333 29.4637C19.4371 28.7932 19.4504 27.3698 19.4504 25.6567Z" fill="white"/>
<path d="M7.2243 25.4836C7.53455 26.1222 8.5772 27.6518 11.3278 27.3297C11.324 26.9932 11.3211 26.6163 11.3192 26.2022C9.1972 26.6654 7.94435 26.1193 7.2243 25.4836Z" fill="white"/>
<path d="M7.7547 23.5412C7.65985 23.3982 7.4821 23.1556 7.2243 22.9131C7.39155 23.1613 7.5693 23.3696 7.7547 23.5412Z" fill="white"/>
</g>
<defs>
<clipPath id="clip0_11_2">
<rect width="30" height="30" fill="white"/>
</clipPath>
</defs>
</svg>
