<svg width="30" height="30" viewBox="0 0 30 30" fill="none" xmlns="http://www.w3.org/2000/svg">
<g clip-path="url(#clip0_11_11)">
<path d="M15 0C6.71575 0 0 6.71575 0 15C0 23.2843 6.71575 30 15 30C23.2843 30 30 23.2843 30 15C30 6.71575 23.2843 0 15 0ZM15.3719 16.102C15.3719 19.2322 13.4946 21.8803 10.0984 21.8803C6.8307 21.8803 4.65144 19.0182 4.65144 15.2795C4.65144 11.2004 6.9163 8.82285 10.0984 8.82285C12.3408 8.82285 13.6636 9.59135 14.7115 11.1847L12.9177 12.2213C12.298 11.2388 11.5498 10.8624 10.2697 10.8624C8.13325 10.8624 6.8938 12.2033 6.8938 15.2795C6.8938 17.9275 8.09045 19.8948 10.0984 19.8948C11.9779 19.8948 12.8095 18.8582 12.8095 17.1567H10.3125V15.2434H15.3741V16.102H15.3719ZM22.0786 16.1719V19.8926H20.4515V16.1719H16.7307V14.5448H20.4515V10.8421H22.0786V14.5448H25.7812V16.1719H22.0786Z" fill="white"/>
</g>
<defs>
<clipPath id="clip0_11_11">
<rect width="30" height="30" fill="white"/>
</clipPath>
</defs>
</svg>
