<svg width="30" height="30" viewBox="0 0 30 30" fill="none" xmlns="http://www.w3.org/2000/svg">
<g clip-path="url(#clip0_11_13)">
<path d="M27.2862 0H2.71375C1.215 0 0 1.215 0 2.71375V27.2862C0 28.785 1.215 30 2.71375 30H27.2862C28.785 30 30 28.785 30 27.2862V2.71375C30 1.215 28.785 0 27.2862 0ZM9.2833 25.904C9.2833 26.3401 8.9297 26.6937 8.49355 26.6937H5.1318C4.69565 26.6937 4.34206 26.3401 4.34206 25.904V11.8118C4.34206 11.3756 4.69565 11.022 5.1318 11.022H8.49355C8.9297 11.022 9.2833 11.3756 9.2833 11.8118V25.904ZM6.8127 9.6936C5.04885 9.6936 3.619 8.26375 3.619 6.49995C3.619 4.73617 5.04885 3.30628 6.8127 3.30628C8.57645 3.30628 10.0063 4.73617 10.0063 6.49995C10.0063 8.26375 8.57655 9.6936 6.8127 9.6936ZM26.8515 25.9676C26.8515 26.3685 26.5265 26.6937 26.1255 26.6937H22.518C22.117 26.6937 21.792 26.3685 21.792 25.9676V19.3575C21.792 18.3715 22.0812 15.0365 19.215 15.0365C16.9918 15.0365 16.5409 17.3192 16.4503 18.3435V25.9676C16.4503 26.3685 16.1252 26.6937 15.7241 26.6937H12.2352C11.8342 26.6937 11.5091 26.3685 11.5091 25.9676V11.7481C11.5091 11.3471 11.8342 11.022 12.2352 11.022H15.7241C16.1251 11.022 16.4503 11.3471 16.4503 11.7481V12.9776C17.2747 11.7405 18.4998 10.7856 21.1083 10.7856C26.8846 10.7856 26.8515 16.1821 26.8515 19.1472V25.9676Z" fill="white"/>
</g>
<defs>
<clipPath id="clip0_11_13">
<rect width="30" height="30" fill="white"/>
</clipPath>
</defs>
</svg>
