<svg width="60" height="60" viewBox="0 0 60 60" fill="none" xmlns="http://www.w3.org/2000/svg">
<g clip-path="url(#clip0_2_13)">
<path d="M54.5725 0H5.42749C2.43 0 0 2.43 0 5.42749V54.5724C0 57.57 2.43 60 5.42749 60H54.5724C57.57 60 60 57.57 60 54.5724V5.42749C60 2.43 57.57 0 54.5725 0ZM18.5666 51.808C18.5666 52.6803 17.8594 53.3874 16.9871 53.3874H10.2636C9.39129 53.3874 8.68413 52.6803 8.68413 51.808V23.6235C8.68413 22.7512 9.39129 22.044 10.2636 22.044H16.9871C17.8594 22.044 18.5666 22.7512 18.5666 23.6235V51.808ZM13.6254 19.3872C10.0977 19.3872 7.23801 16.5275 7.23801 12.9999C7.23801 9.47234 10.0977 6.61256 13.6254 6.61256C17.1529 6.61256 20.0127 9.47234 20.0127 12.9999C20.0127 16.5275 17.1531 19.3872 13.6254 19.3872ZM53.7031 51.9352C53.7031 52.7371 53.0529 53.3874 52.2509 53.3874H45.0361C44.2341 53.3874 43.5839 52.7371 43.5839 51.9352V38.715C43.5839 36.7429 44.1624 30.073 38.43 30.073C33.9835 30.073 33.0817 34.6384 32.9006 36.6871V51.9352C32.9006 52.7371 32.2505 53.3874 31.4483 53.3874H24.4704C23.6684 53.3874 23.0181 52.7371 23.0181 51.9352V23.4963C23.0181 22.6943 23.6684 22.044 24.4704 22.044H31.4483C32.2503 22.044 32.9006 22.6943 32.9006 23.4963V25.9552C34.5493 23.4809 36.9996 21.5711 42.2166 21.5711C53.7692 21.5711 53.7031 32.3642 53.7031 38.2945V51.9352Z" fill="white"/>
</g>
<defs>
<clipPath id="clip0_2_13">
<rect width="60" height="60" fill="white"/>
</clipPath>
</defs>
</svg>
