<svg width="30" height="30" viewBox="0 0 30 30" fill="none" xmlns="http://www.w3.org/2000/svg">
<path d="M0.578062 22.5002C1.84541 22.3455 3.13055 22.5122 4.3979 22.304C5.0345 22.2029 5.6176 21.9887 6.19475 21.7625C4.76682 20.8463 3.48156 19.7991 2.28574 18.5438C1.85735 18.0975 2.1667 17.3477 2.79148 17.33C3.3032 17.3537 3.80297 17.3122 4.2908 17.211C3.04721 15.6343 2.08336 13.9385 1.3337 12.0345C1.13145 11.5228 1.72637 11.0053 2.20837 11.1599C2.48798 11.273 2.77357 11.3503 3.06512 11.4098C2.17864 9.2797 1.99418 7.13185 2.48798 4.77563C2.60104 4.23418 3.31501 4.10333 3.67796 4.46031C6.522 7.2566 10.1157 8.6013 13.9593 9.2439C13.6201 6.61405 15.4885 3.81762 17.9397 2.90128C19.9747 2.14564 22.7056 2.66333 24.0741 4.37684C24.9904 3.7997 26.2577 3.60927 27.2751 3.43078C27.8106 3.34147 28.3283 3.86513 28.013 4.39463C27.6441 5.01345 27.2931 5.6738 26.9063 6.30455C27.6917 6.07245 28.5009 5.92965 29.3101 5.82855C29.8932 5.7512 30.2442 6.64955 29.7981 7.00655C28.8519 7.7622 27.9119 8.62495 26.9063 9.31515C26.8766 15.9969 24.925 21.6017 18.9573 25.4037C13.9831 28.581 4.73696 28.0455 0.411512 23.7199H0.40554C0.215107 23.6723 0.113983 23.5295 0.0782854 23.3749C-0.0882631 23.125 0.0306447 22.8157 0.250805 22.6966C0.334144 22.5954 0.441239 22.518 0.578062 22.5002Z" fill="white"/>
</svg>
