<svg width="60" height="60" viewBox="0 0 60 60" fill="none" xmlns="http://www.w3.org/2000/svg">
<path d="M1.15612 45.0005C3.69082 44.691 6.26109 45.0244 8.79579 44.608C10.069 44.4057 11.2352 43.9773 12.3895 43.525C9.53363 41.6926 6.96311 39.5982 4.57147 37.0875C3.7147 36.1949 4.33339 34.6955 5.58296 34.66C6.60639 34.7075 7.60594 34.6244 8.5816 34.4219C6.09441 31.2685 4.16671 27.877 2.66739 24.0691C2.26289 23.0457 3.45274 22.0106 4.41673 22.3198C4.97596 22.546 5.54713 22.7007 6.13024 22.8196C4.35728 18.5594 3.98835 14.2637 4.97596 9.55126C5.20208 8.46837 6.63001 8.20667 7.35592 8.92063C13.044 14.5132 20.2314 17.2026 27.9186 18.4878C27.2402 13.2281 30.977 7.63524 35.8794 5.80256C39.9493 4.29129 45.4112 5.32667 48.1482 8.75369C49.9808 7.59941 52.5153 7.21854 54.5502 6.86156C55.6212 6.68294 56.6565 7.73026 56.026 8.78927C55.2881 10.0269 54.5861 11.3476 53.8126 12.6091C55.3834 12.1449 57.0018 11.8593 58.6201 11.6571C59.7863 11.5024 60.4883 13.2991 59.5961 14.0131C57.7038 15.5244 55.8237 17.2499 53.8126 18.6303C53.7532 31.9937 49.85 43.2034 37.9146 50.8073C27.9661 57.162 9.47391 56.091 0.82302 47.4399H0.811077C0.43021 47.3446 0.227963 47.059 0.156567 46.7498C-0.17653 46.25 0.0612855 45.6314 0.501607 45.3933C0.668285 45.1908 0.882474 45.0361 1.15612 45.0005Z" fill="white"/>
</svg>
