<svg width="16" height="16" viewBox="0 0 16 16" fill="none" xmlns="http://www.w3.org/2000/svg">
<g clip-path="url(#clip0_9_135)">
<path d="M9.14177 3.67599C9.42697 3.10824 9.71232 2.54018 10.0711 1.81818H11.335C10.8226 2.78445 10.2413 3.84425 9.65904 4.90556L9.65853 4.9065C9.08355 5.95472 8.50955 7.00436 8.0001 7.96429L4.66919 1.81818H5.92661L6.80264 3.6897L7.83981 5.63789L8.0001 5.94996L8.16315 5.6333C8.54526 4.86359 8.84344 4.26996 9.14177 3.67599Z" fill="black" stroke="black" stroke-width="0.4"/>
<path d="M8.15998 8.99572L11.4547 3.12729V4.94696L7.99983 11.325L6.78333 9.08663V7.20001L7.84034 8.99594L8.00037 9.29034L8.15998 8.99572Z" fill="black" stroke="black" stroke-width="0.4"/>
<path d="M15.2727 0.436371L8.00002 14.2546L0.727295 0.436371H15.2727Z" stroke="#1cd119" stroke-width="0.9"/>
</g>
<defs>
<clipPath id="clip0_9_135">
<rect width="16" height="16" fill="white"/>
</clipPath>
</defs>
</svg>
