<svg width="16" height="16" viewBox="0 0 16 16" fill="none" xmlns="http://www.w3.org/2000/svg">
<g clip-path="url(#clip0_5_120)">
<path d="M9.14171 3.67599C9.42691 3.10824 9.71226 2.54018 10.071 1.81818H11.3349C10.8225 2.78445 10.2412 3.84425 9.65898 4.90556L9.65847 4.9065C9.08349 5.95472 8.50949 7.00436 8.00004 7.96429L4.66913 1.81818H5.92655L6.80258 3.6897L7.83975 5.63789L8.00004 5.94996L8.16309 5.6333C8.5452 4.86359 8.84338 4.26996 9.14171 3.67599Z" fill="#1CD119" stroke="#1CD119" stroke-width="0.4"/>
<path d="M8.15998 8.99572L11.4547 3.12729V4.94696L7.99983 11.325L6.78333 9.08663V7.20001L7.84034 8.99594L8.00038 9.29034L8.15998 8.99572Z" fill="#1CD119" stroke="#1CD119" stroke-width="0.4"/>
<path d="M15.2727 0.436371L8.00002 14.2546L0.727295 0.436371H15.2727Z" stroke="#1CD119"/>
</g>
<defs>
<clipPath id="clip0_5_120">
<rect width="16" height="15.2727" fill="white"/>
</clipPath>
</defs>
</svg>
