<svg width="44" height="42" viewBox="0 0 44 42" fill="none" xmlns="http://www.w3.org/2000/svg">
<path d="M25.1396 10.109C25.9239 8.54768 26.7086 6.98552 27.6951 5H31.1709C29.7618 7.65724 28.1631 10.5717 26.5621 13.4903L26.5607 13.4929C24.9795 16.3755 23.401 19.262 22 21.9018L12.84 5H16.2979L18.707 10.1467L21.5592 15.5042L22 16.3624L22.4484 15.4916C23.4992 13.3749 24.3192 11.7424 25.1396 10.109Z" fill="#1cd119" stroke="#1cd119" stroke-width="0.8"/>
<path d="M22.4399 24.7382L31.5003 8.60004V13.6041L21.9995 31.1438L18.6541 24.9882V19.8L21.5609 24.7388L22.001 25.5484L22.4399 24.7382Z" fill="#1cd119" stroke="#1cd119" stroke-width="0.8"/>
<path d="M42 1.20001L22 39.2L2 1.20001H42Z" stroke="#1cd119" stroke-width="2"/>
</svg>
