<svg width="44" height="41" viewBox="0 0 44 41" fill="none" xmlns="http://www.w3.org/2000/svg">
<path d="M25.7877 21.0499L24.0619 19.4811C24.2502 19.1289 24.4151 18.7672 24.556 18.397H26.9964C27.7984 18.397 28.4487 17.8059 28.4487 17.0767V13.2064C28.4487 12.4774 27.7985 11.8861 26.9964 11.8861H24.5559C24.415 11.516 24.2501 11.1543 24.0619 10.8021L25.7877 9.23319C26.3548 8.71764 26.3548 7.88168 25.7877 7.36612L22.7773 4.62942C22.2101 4.114 21.2908 4.114 20.7236 4.62942L18.9978 6.19831C18.6104 6.02727 18.2126 5.87723 17.8053 5.74929V3.53057C17.8053 2.80154 17.1551 2.2103 16.353 2.2103H12.0957C11.2938 2.2103 10.6434 2.80141 10.6434 3.53057V5.74929C10.2363 5.87737 9.83837 6.02713 9.45096 6.19831L7.72533 4.62942C7.45304 4.38188 7.08356 4.24275 6.69837 4.24275C6.31319 4.24275 5.94385 4.38188 5.67141 4.62942L2.66089 7.36612C2.38859 7.61366 2.23556 7.94955 2.23556 8.29972C2.23556 8.64989 2.38859 8.98565 2.66089 9.23333L4.38667 10.8022C4.19852 11.1543 4.03348 11.516 3.89274 11.8863H1.4523C0.650222 11.8863 0 12.4774 0 13.2064V17.0768C0 17.8059 0.650222 18.3971 1.4523 18.3971H3.89274C4.03378 18.7672 4.19852 19.1289 4.38681 19.4813L2.66104 21.05C2.09393 21.5656 2.09393 22.4015 2.66104 22.9171L5.67141 25.6538C6.23867 26.1691 7.15793 26.1694 7.72519 25.6538L9.45096 24.0849C9.83822 24.2561 10.2363 24.4061 10.6434 24.5341V26.7528C10.6434 27.4818 11.2936 28.0731 12.0957 28.0731H16.3532C17.1551 28.0731 17.8055 27.4819 17.8055 26.7528V24.5341C18.2124 24.406 18.6105 24.2561 18.9979 24.0849L20.7237 25.6538C21.291 26.1692 22.2102 26.1692 22.7775 25.6538L25.7879 22.9171C26.355 22.4014 26.355 21.5654 25.7877 21.0499ZM22.0486 16.7815C21.8486 17.5733 21.5067 18.3236 21.0323 19.0115C20.6727 19.5329 20.7573 20.2111 21.236 20.6461L22.7071 21.9835L21.7505 22.8533L20.2793 21.5157C19.8004 21.0806 19.0547 21.0041 18.4812 21.3306C17.7241 21.7619 16.899 22.0728 16.0284 22.2543C15.3686 22.392 14.901 22.9258 14.901 23.5412V25.4325H13.5481V23.5412C13.5481 22.9258 13.0806 22.3921 12.4207 22.2543C11.5502 22.0728 10.725 21.7619 9.968 21.3306C9.39496 21.0042 8.64874 21.0805 8.16993 21.5157L6.69867 22.8533L5.74207 21.9835L7.21319 20.6461C7.69185 20.211 7.7763 19.5329 7.41689 19.0115C6.94252 18.3236 6.60059 17.5733 6.40059 16.7815C6.24919 16.1817 5.66207 15.7567 4.98519 15.7567H2.90444V14.5268H4.98474C5.66148 14.5268 6.24859 14.1017 6.40015 13.5021C6.6003 12.7102 6.94207 11.9601 7.41644 11.2722C7.77615 10.7509 7.69156 10.0727 7.21289 9.6375L5.74163 8.29999L6.69837 7.43036L8.16948 8.76787C8.64815 9.20316 9.39437 9.27952 9.9677 8.95292C10.7244 8.52168 11.5496 8.21097 12.4203 8.02929C13.0801 7.89164 13.5477 7.35777 13.5477 6.74242V4.85083H14.9006V6.74215C14.9006 7.3575 15.3681 7.89124 16.028 8.02902C16.8988 8.2107 17.7239 8.52141 18.4806 8.95265C19.0541 9.27952 19.8003 9.20302 20.2788 8.7676L21.7501 7.43009L22.7067 8.29972L21.2354 9.63723C20.7567 10.0725 20.6723 10.7506 21.0319 11.272C21.5062 11.9598 21.848 12.7101 22.0481 13.5019C22.1996 14.1015 22.7868 14.5265 23.4636 14.5265H25.5439V15.7564H23.4636C22.787 15.7566 22.2 16.1816 22.0486 16.7815Z" fill="#E84949"/>
<path d="M14.2243 10.0684C11.1471 10.0684 8.64371 12.3442 8.64371 15.1416C8.64371 17.9391 11.1471 20.2149 14.2243 20.2149C17.3015 20.2149 19.8049 17.9391 19.8049 15.1416C19.8049 12.3442 17.3016 10.0684 14.2243 10.0684ZM14.2243 17.5745C12.7486 17.5745 11.5482 16.4832 11.5482 15.1416C11.5482 13.8001 12.7487 12.7088 14.2243 12.7088C15.6999 12.7088 16.9004 13.8001 16.9004 15.1416C16.9004 16.4832 15.7 17.5745 14.2243 17.5745Z" fill="#E84949"/>
<path d="M43.0487 30.276C43.6797 30.1702 44.0969 29.6195 43.9804 29.0458L43.4324 26.3451C43.3766 26.0696 43.2025 25.8256 42.9489 25.6669C42.6951 25.5081 42.3821 25.4473 42.0792 25.4981L40.4674 25.7683C40.3425 25.5733 40.2072 25.3838 40.0625 25.2003L40.9918 23.9733C41.1665 23.7424 41.2333 23.4581 41.1775 23.1827C41.1216 22.9071 40.9475 22.6632 40.6938 22.5044L38.2055 20.947C37.6775 20.6164 36.9538 20.7373 36.5899 21.2178L35.6604 22.445C35.4203 22.3874 35.1775 22.3404 34.9324 22.3039L34.6351 20.8387C34.5187 20.2651 33.9121 19.8854 33.2819 19.9917L30.3111 20.4899C30.008 20.5407 29.7397 20.6989 29.565 20.9295C29.3904 21.1603 29.3235 21.4446 29.3794 21.7201L29.6767 23.1854C29.4621 23.299 29.2536 23.4219 29.0518 23.5535L27.7021 22.7086C27.4481 22.5498 27.1354 22.4893 26.8324 22.5399C26.5293 22.5906 26.261 22.7489 26.0864 22.9796L24.3732 25.2417C24.1984 25.4724 24.1317 25.7567 24.1876 26.0321C24.2434 26.3077 24.4175 26.5517 24.6713 26.7105L26.021 27.5552C25.9576 27.7737 25.9059 27.9943 25.8658 28.2172L24.2539 28.4875C23.9508 28.5382 23.6825 28.6965 23.5078 28.9271C23.333 29.1579 23.2664 29.4422 23.3222 29.7176L23.8704 32.4184C23.9868 32.992 24.5924 33.3718 25.2235 33.2654L26.8354 32.9951C26.9603 33.1901 27.0955 33.3797 27.2403 33.5632L26.311 34.7901C26.1363 35.0209 26.0695 35.3051 26.1253 35.5807C26.1812 35.8562 26.3553 36.1001 26.609 36.2589L29.0973 37.8164C29.6253 38.147 30.3492 38.0259 30.7129 37.5455L31.6422 36.3184C31.8824 36.3759 32.1252 36.423 32.3704 36.4596L32.6677 37.9248C32.771 38.4336 33.2594 38.7896 33.8089 38.7896C33.8788 38.7896 33.9498 38.7839 34.0209 38.7719L36.9917 38.2737C37.2948 38.223 37.5631 38.0647 37.7378 37.8341C37.9124 37.6033 37.9792 37.319 37.9234 37.0436L37.6261 35.5782C37.8407 35.4646 38.0492 35.3417 38.2509 35.2102L39.6006 36.055C39.8545 36.2139 40.1669 36.2747 40.4702 36.2238C40.7733 36.173 41.0416 36.0147 41.2163 35.784L42.9295 33.5219C43.2933 33.0415 43.16 32.384 42.6315 32.0533L41.2818 31.2083C41.3452 30.99 41.3969 30.7692 41.437 30.5465L43.0487 30.276ZM40.1621 28.6123C39.6293 28.7016 39.2352 29.1137 39.2121 29.6056C39.1855 30.1679 39.0563 30.7182 38.8281 31.2415C38.6286 31.6992 38.8032 32.2215 39.2493 32.5007L40.357 33.1941L39.9615 33.7164L38.8539 33.0231C38.4075 32.7438 37.8086 32.7819 37.4098 33.1147C36.9533 33.4951 36.4338 33.8013 35.8655 34.0246C35.3683 34.2199 35.0855 34.7016 35.1837 35.1856L35.4277 36.3883L34.7419 36.5034L34.4979 35.3008C34.3997 34.8166 33.9465 34.4584 33.4055 34.4372C32.7865 34.4129 32.181 34.2954 31.6055 34.0881C31.4659 34.0379 31.3212 34.0138 31.1779 34.0138C30.8044 34.0138 30.4425 34.1781 30.2206 34.471L29.4579 35.478L28.8834 35.1184L29.6461 34.1116C29.9532 33.706 29.9114 33.1615 29.5453 32.7987C29.1268 32.3838 28.7901 31.9114 28.5443 31.3945C28.3293 30.9427 27.7982 30.6854 27.2671 30.775L25.9443 30.9968L25.8176 30.3734L27.1406 30.1516C27.6733 30.0623 28.0674 29.6502 28.0905 29.1583C28.1172 28.596 28.2464 28.0457 28.4745 27.5221C28.6741 27.0644 28.4993 26.5423 28.0532 26.263L26.9455 25.5698L27.341 25.0475L28.4487 25.7408C28.8951 26.0203 29.4938 25.982 29.8929 25.6492C30.3493 25.2687 30.8689 24.9626 31.4375 24.7392C31.9344 24.5438 32.2172 24.0621 32.119 23.5781L31.875 22.3755L32.5607 22.2605L32.8047 23.4631C32.903 23.9474 33.3563 24.3056 33.8973 24.3267C34.5158 24.3509 35.1212 24.4683 35.6969 24.6757C36.2007 24.8573 36.7749 24.6982 37.0819 24.2929L37.8447 23.2857L38.4192 23.6453L37.6566 24.6523C37.3495 25.058 37.3912 25.6025 37.7573 25.9653C38.1758 26.3801 38.5126 26.8523 38.7582 27.3691C38.9729 27.8209 39.5034 28.0783 40.0354 27.9889L41.3584 27.7671L41.4849 28.3905L40.1621 28.6123Z" fill="#E84949"/>
<path d="M35.9714 26.3183C35.0714 25.7551 33.9835 25.5442 32.909 25.7242C31.8343 25.9044 30.9012 26.4545 30.2814 27.2727C29.002 28.9618 29.473 31.2824 31.3311 32.4453C32.038 32.8879 32.8456 33.1 33.6452 33.1C34.9472 33.1 36.2286 32.5374 37.0212 31.491C38.3004 29.8018 37.8295 27.4813 35.9714 26.3183ZM35.1074 30.2931C34.5546 31.0228 33.4517 31.2079 32.649 30.7055C31.8462 30.203 31.6426 29.2003 32.1954 28.4706C32.1955 28.4705 32.1955 28.4705 32.1955 28.4705C32.4631 28.117 32.8663 27.8794 33.3306 27.8015C33.4388 27.7835 33.5474 27.7745 33.6551 27.7745C34.0096 27.7745 34.3555 27.8716 34.6537 28.0582C35.4566 28.5607 35.6601 29.5633 35.1074 30.2931Z" fill="#E84949"/>
</svg>
