<svg width="66" height="66" viewBox="0 0 66 66" fill="none" xmlns="http://www.w3.org/2000/svg">
<g clip-path="url(#clip0_13_23)">
<path d="M32.999 1.17676C15.0527 1.17676 0.5 15.7839 0.5 33.8078C0.5 48.2221 9.81073 60.4526 22.73 64.7667C24.354 65.0676 24.9463 64.0601 24.9463 63.1941C24.9463 62.4204 24.918 60.3687 24.9023 57.645C15.8599 59.6191 13.9529 53.2711 13.9529 53.2711C12.4768 49.5011 10.3465 48.4999 10.3465 48.4999C7.39419 46.4744 10.5687 46.5132 10.5687 46.5132C13.8292 46.7428 15.5454 49.8775 15.5454 49.8775C18.4473 54.8636 23.1546 53.4221 25.006 52.5865C25.2985 50.4793 26.1404 49.0398 27.0682 48.2252C19.8532 47.4001 12.2671 44.603 12.2671 32.101C12.2671 28.5397 13.5325 25.6262 15.6115 23.3428C15.2749 22.5177 14.1605 19.2017 15.9281 14.7104C15.9281 14.7104 18.6581 13.8339 24.8656 18.0547C27.4582 17.3314 30.2385 16.9697 33.0031 16.955C35.7615 16.9697 38.5439 17.3303 41.1407 18.0547C47.343 13.8339 50.0688 14.7104 50.0688 14.7104C51.8406 19.2017 50.7261 22.5177 50.3906 23.3428C52.4748 25.6262 53.7329 28.5386 53.7329 32.101C53.7329 44.6345 46.1342 47.3918 38.894 48.2011C40.0609 49.2086 41.0998 51.1984 41.0998 54.244C41.0998 58.6074 41.061 62.1237 41.061 63.1941C41.061 64.0685 41.6471 65.0843 43.2952 64.7625C56.1977 60.44 65.5 48.2179 65.5 33.8078C65.5 15.7839 50.9473 1.17676 32.999 1.17676Z" fill="white"/>
<path d="M32.999 1.17676C15.0527 1.17676 0.5 15.7839 0.5 33.8078C0.5 48.2221 9.81073 60.4526 22.73 64.7667C24.354 65.0676 24.9463 64.0601 24.9463 63.1941C24.9463 62.4204 24.918 60.3687 24.9023 57.645C15.8599 59.6191 13.9529 53.2711 13.9529 53.2711C12.4768 49.5011 10.3465 48.4999 10.3465 48.4999C7.39419 46.4744 10.5687 46.5132 10.5687 46.5132C13.8292 46.7428 15.5454 49.8775 15.5454 49.8775C18.4473 54.8636 23.1546 53.4221 25.006 52.5865C25.2985 50.4793 26.1404 49.0398 27.0682 48.2252C19.8532 47.4001 12.2671 44.603 12.2671 32.101C12.2671 28.5397 13.5325 25.6262 15.6115 23.3428C15.2749 22.5177 14.1605 19.2017 15.9281 14.7104C15.9281 14.7104 18.6581 13.8339 24.8656 18.0547C27.4582 17.3314 30.2385 16.9697 33.0031 16.955C35.7615 16.9697 38.5439 17.3303 41.1407 18.0547C47.343 13.8339 50.0688 14.7104 50.0688 14.7104C51.8406 19.2017 50.7261 22.5177 50.3906 23.3428C52.4748 25.6262 53.7329 28.5386 53.7329 32.101C53.7329 44.6345 46.1342 47.3918 38.894 48.2011C40.0609 49.2086 41.0998 51.1984 41.0998 54.244C41.0998 58.6074 41.061 62.1237 41.061 63.1941C41.061 64.0685 41.6471 65.0843 43.2952 64.7625C56.1977 60.44 65.5 48.2179 65.5 33.8078C65.5 15.7839 50.9473 1.17676 32.999 1.17676Z" fill="white"/>
<path d="M50.1013 14.8013C51.8217 19.2443 50.724 22.5237 50.3896 23.3425C52.4738 25.6259 53.7319 28.5383 53.7319 32.1007C53.7319 44.6342 46.1332 47.3914 38.893 48.2008C40.0598 49.2083 41.0988 51.1981 41.0988 54.2437C41.0988 58.6071 41.06 62.1234 41.06 63.1938C41.06 64.0681 41.6461 65.084 43.2941 64.7622C56.1977 60.4397 65.5 48.2176 65.5 33.8075C65.5 29.9337 64.8248 26.2203 63.5909 22.7732C59.1101 18.0555 54.1229 14.9134 50.1013 14.8013Z" fill="white"/>
<path d="M25.7892 49.9476C26.154 49.2116 26.5996 48.6392 27.0682 48.2251C23.1137 47.7722 19.0523 46.7164 16.1849 43.803C18.3907 47.4744 21.9825 49.1445 25.7892 49.9476Z" fill="white"/>
<path d="M2.1921 36.0073C2.1921 17.9835 16.7448 3.37627 34.6911 3.37627C44.656 3.37627 53.5694 7.88329 59.5294 14.9725C53.6427 6.62732 43.9577 1.17676 32.999 1.17676C15.0527 1.17676 0.5 15.7839 0.5 33.8078C0.5 41.8437 3.39879 49.196 8.19936 54.8793C4.42411 49.5504 2.1921 43.0441 2.1921 36.0073Z" fill="white"/>
<path d="M42.7909 56.4446C42.7909 53.4001 41.7519 51.4071 40.5851 50.3996C47.8252 49.5923 55.425 46.833 55.425 34.3005C55.425 30.7381 54.1669 27.8268 52.0806 25.5434C52.4182 24.7183 53.5348 21.4012 51.7588 16.9109C51.7588 16.9109 51.4212 16.8072 50.724 16.847C51.4852 20.2333 50.6695 22.6551 50.3896 23.3428C52.4738 25.6262 53.7319 28.5386 53.7319 32.101C53.7319 44.6345 46.1331 47.3918 38.893 48.2011C40.0598 49.2086 41.0988 51.1984 41.0988 54.244C41.0988 58.6074 41.06 62.1237 41.06 63.1941C41.06 63.9636 41.5181 64.8411 42.7531 64.8201C42.7615 63.3451 42.7909 60.2135 42.7909 56.4446Z" fill="white"/>
<path d="M15.8935 56.064C16.576 57.4688 18.8698 60.8341 24.9211 60.1254C24.9127 59.3852 24.9064 58.556 24.9022 57.6449C20.2338 58.664 17.4776 57.4625 15.8935 56.064Z" fill="white"/>
<path d="M17.0603 51.7905C16.8517 51.476 16.4606 50.9423 15.8935 50.4087C16.2614 50.9549 16.6525 51.413 17.0603 51.7905Z" fill="white"/>
</g>
<defs>
<clipPath id="clip0_13_23">
<rect width="65" height="65" fill="white" transform="translate(0.5 0.5)"/>
</clipPath>
</defs>
</svg>
