<svg width="35" height="35" viewBox="0 0 35 35" fill="none" xmlns="http://www.w3.org/2000/svg">
<path d="M12.0134 34.1143C12.5573 33.8825 12.9348 33.3445 12.9348 32.7174V28.6099C12.9348 28.4583 12.9467 28.3038 12.9645 28.1433C12.9556 28.1462 12.9467 28.1492 12.9348 28.1522C12.9348 28.1522 10.6522 28.1522 10.1945 28.1522C9.05316 28.1522 8.06641 27.6945 7.6087 26.782C7.07668 25.7923 6.84783 24.119 5.47767 23.2065C5.24881 23.0549 5.40336 22.8261 5.8581 22.8261C6.31581 22.9034 7.30554 23.5097 7.91186 24.3478C8.59842 25.186 9.28201 25.8696 10.5006 25.8696C12.3909 25.8696 13.4074 25.7745 14.0166 25.4475C14.727 24.3894 15.7108 23.587 16.7391 23.587V23.5691C12.4265 23.4294 9.67137 21.9969 8.3874 19.7826C5.59952 19.8153 3.17128 20.0917 1.78626 20.3206C1.74168 20.0709 1.70304 19.8212 1.67035 19.5686C3.03753 19.3457 5.35581 19.0782 8.02182 19.0277C7.93563 18.8167 7.86133 18.5997 7.79891 18.3798C5.12695 18.246 2.82354 18.35 1.56929 18.4541C1.55443 18.2014 1.53363 17.9488 1.53066 17.6932C2.7849 17.5921 5.02887 17.4881 7.63247 17.61C7.57303 17.2295 7.53439 16.8402 7.53439 16.436C7.53439 15.1431 7.98913 13.7729 8.82728 12.6316C8.44684 11.3387 7.91483 8.59842 8.97886 7.6087C11.0326 7.6087 12.48 8.59842 13.1636 9.20771C14.4565 8.67272 15.901 8.36957 17.5 8.36957C19.099 8.36957 20.5435 8.67272 21.7621 9.20771C22.4457 8.59842 23.8901 7.6087 25.9468 7.6087C27.0881 8.67272 26.4789 11.413 26.0984 12.6316C26.9336 13.7729 27.3913 15.0658 27.314 16.436C27.314 16.8045 27.2813 17.1582 27.2308 17.5059C29.8939 17.3752 32.1973 17.4822 33.4723 17.5832C33.4723 17.8418 33.4485 18.0915 33.4337 18.3441C32.1646 18.2401 29.8017 18.1301 27.0763 18.2757C27.0079 18.5313 26.9247 18.781 26.8266 19.0217C29.5253 19.0574 31.9001 19.319 33.3326 19.5478C33.2999 19.8004 33.2613 20.0501 33.2167 20.2968C31.7604 20.065 29.2816 19.7915 26.461 19.7796C25.1949 21.9671 22.4902 23.3967 18.2609 23.5632V23.587C20.2403 23.587 22.0652 26.5532 22.0652 28.6099V32.7174C22.0652 33.3445 22.4427 33.8825 22.9866 34.1143C29.9563 31.8079 35 25.2335 35 17.5C35 7.84944 27.1506 0 17.5 0C7.84944 0 0 7.84944 0 17.5C0 25.2335 5.04373 31.8079 12.0134 34.1143Z" fill="#1CD119"/>
</svg>
