<svg width="65" height="65" viewBox="0 0 65 65" fill="none" xmlns="http://www.w3.org/2000/svg">
<g clip-path="url(#clip0_16_0)">
<path d="M65 13.4238V51.576C65 55.0945 62.1598 57.9347 58.6413 57.9347H6.3587C2.8402 57.9347 0 55.0945 0 51.576V13.4238C0 13.3108 0 13.1977 0.0140918 13.0847C0.183701 9.83467 2.76948 7.24876 6.01948 7.07928C6.13247 7.06519 6.24559 7.06519 6.35857 7.06519H58.6412C58.7542 7.06519 58.8814 7.06519 58.9945 7.07928C62.2304 7.24889 64.8162 9.83467 64.9858 13.0706C65 13.1836 65 13.3108 65 13.4238Z" fill="white"/>
<path d="M58.9946 7.07928C58.8814 7.06519 58.7545 7.06519 58.6413 7.06519H32.5V57.9348H58.6413C62.1598 57.9348 65 55.0946 65 51.5761V13.4239C65 13.3109 65 13.1837 64.9859 13.0706C64.8163 9.83479 62.2304 7.24889 58.9946 7.07928Z" fill="white"/>
<path d="M64.9859 13.0708C64.8163 9.83486 62.2305 7.24908 58.9946 7.07947C48.6091 17.4649 42.777 23.2971 32.5 33.574C28.6014 29.6731 9.85283 10.9127 6.01961 7.07935C2.76961 7.24896 0.183701 9.83474 0.0142188 13.0847C0 13.1979 0 13.311 0 13.424V51.5762C0 55.0947 2.8402 57.9349 6.3587 57.9349H8.47831V21.549L29.5044 42.561C30.324 43.3947 31.412 43.8045 32.5001 43.8045C33.5881 43.8045 34.6762 43.3947 35.4958 42.561L56.5219 21.5349V57.9349H58.6416C62.1601 57.9349 65.0003 55.0947 65.0003 51.5762V13.424C65 13.311 65 13.1838 64.9859 13.0708Z" fill="#303030" fill-opacity="0.57"/>
<path d="M35.4956 42.561L56.5217 21.5349V57.9349H58.6413C62.1598 57.9349 65 55.0947 65 51.5762V13.424C65 13.311 65 13.1838 64.9859 13.0706C64.8163 9.83474 62.2305 7.24896 58.9946 7.07935C48.6092 17.4649 42.777 23.2971 32.5 33.574V43.8043C33.588 43.8043 34.6761 43.3947 35.4956 42.561Z" fill="#303030" fill-opacity="0.57"/>
</g>
<defs>
<clipPath id="clip0_16_0">
<rect width="65" height="65" fill="white"/>
</clipPath>
</defs>
</svg>
