<svg width="65" height="65" viewBox="0 0 65 65" fill="none" xmlns="http://www.w3.org/2000/svg">
<path d="M59.1202 0H5.87978C2.6325 0 0 2.6325 0 5.87978V59.1201C0 62.3675 2.6325 65 5.87978 65H59.1201C62.3675 65 65 62.3675 65 59.1201V5.87978C65 2.6325 62.3675 0 59.1202 0ZM20.1138 56.1253C20.1138 57.0703 19.3477 57.8364 18.4027 57.8364H11.1189C10.1739 57.8364 9.40781 57.0703 9.40781 56.1253V25.5921C9.40781 24.6471 10.1739 23.881 11.1189 23.881H18.4027C19.3477 23.881 20.1138 24.6471 20.1138 25.5921V56.1253ZM14.7608 21.0028C10.9392 21.0028 7.84118 17.9048 7.84118 14.0832C7.84118 10.2617 10.9392 7.16361 14.7608 7.16361C18.5823 7.16361 21.6804 10.2617 21.6804 14.0832C21.6804 17.9048 18.5825 21.0028 14.7608 21.0028ZM58.1784 56.2631C58.1784 57.1319 57.474 57.8364 56.6051 57.8364H48.7891C47.9203 57.8364 47.2159 57.1319 47.2159 56.2631V41.9413C47.2159 39.8048 47.8426 32.5791 41.6325 32.5791C36.8155 32.5791 35.8385 37.5249 35.6423 39.7444V56.2631C35.6423 57.1319 34.938 57.8364 34.069 57.8364H26.5096C25.6408 57.8364 24.9363 57.1319 24.9363 56.2631V25.4543C24.9363 24.5855 25.6408 23.881 26.5096 23.881H34.069C34.9378 23.881 35.6423 24.5855 35.6423 25.4543V28.1181C37.4284 25.4376 40.0829 23.3687 45.7346 23.3687C58.25 23.3687 58.1784 35.0612 58.1784 41.4857V56.2631Z" fill="white"/>
</svg>
