<svg width="60" height="60" viewBox="0 0 60 60" fill="none" xmlns="http://www.w3.org/2000/svg">
<path d="M30 0C46.5693 0 60 13.4307 60 30C60 46.5693 46.5693 60 30 60C13.4307 60 0 46.5693 0 30C0 13.4307 13.4307 0 30 0ZM40.3482 42.2283C40.901 40.5341 43.4868 23.6617 43.8052 20.3371C43.902 19.3308 43.5836 18.6608 42.9594 18.3628C42.2053 18.001 41.0895 18.1819 39.7953 18.6481C38.0172 19.2875 15.3057 28.9326 13.9937 29.4905C12.7505 30.0178 11.5735 30.5936 11.5735 31.4292C11.5735 32.0177 11.9226 32.3463 12.883 32.6902C13.8816 33.0469 16.3961 33.8086 17.8838 34.2188C19.313 34.6136 20.9434 34.2697 21.8555 33.7041C22.8235 33.1029 33.992 25.6284 34.7945 24.9737C35.5944 24.319 36.2339 25.1571 35.5791 25.8118C34.9244 26.4691 27.2588 33.9079 26.2475 34.9397C25.0195 36.1906 25.8908 37.4873 26.7137 38.007C27.6537 38.598 34.4175 43.1352 35.4365 43.8638C36.4555 44.5898 37.4873 44.921 38.435 44.921C39.3801 44.921 39.8769 43.6753 40.3482 42.2283Z" fill="white"/>
</svg>
