<svg width="30" height="30" viewBox="0 0 30 30" fill="none" xmlns="http://www.w3.org/2000/svg">
<g clip-path="url(#clip0_11_16)">
<path d="M15 0C23.2846 0 30 6.71535 30 15C30 23.2846 23.2846 30 15 30C6.71535 30 0 23.2846 0 15C0 6.71535 6.71535 0 15 0ZM20.1741 21.1141C20.4505 20.267 21.7434 11.8308 21.9026 10.1685C21.951 9.6654 21.7918 9.3304 21.4797 9.1814C21.1027 9.0005 20.5447 9.09095 19.8976 9.32405C19.0086 9.64375 7.65285 14.4663 6.99685 14.7452C6.37525 15.0089 5.78675 15.2968 5.78675 15.7146C5.78675 16.0088 5.9613 16.1732 6.4415 16.3451C6.9408 16.5235 8.19805 16.9043 8.9419 17.1094C9.6565 17.3068 10.4717 17.1349 10.9277 16.8521C11.4117 16.5515 16.996 12.8142 17.3972 12.4868C17.7972 12.1595 18.117 12.5786 17.7896 12.9059C17.4622 13.2345 13.6294 16.954 13.1237 17.4699C12.5097 18.0953 12.9454 18.7436 13.3568 19.0035C13.8268 19.299 17.2088 21.5676 17.7183 21.9319C18.2278 22.2949 18.7437 22.4605 19.2175 22.4605C19.6901 22.4605 19.9385 21.8376 20.1741 21.1141Z" fill="white"/>
</g>
<defs>
<clipPath id="clip0_11_16">
<rect width="30" height="30" fill="white"/>
</clipPath>
</defs>
</svg>
