<?xml version="1.0" encoding="UTF-8"?>
<svg xmlns="http://www.w3.org/2000/svg" xmlns:xlink="http://www.w3.org/1999/xlink" viewBox="0 0 50 50" width="50px" height="50px">
<g id="surface8487359">
<path style=" stroke:none;fill-rule:nonzero;fill:rgb(100%,100%,100%);fill-opacity:1;" d="M 25 2 C 37.703125 2 48 12.296875 48 25 C 48 37.703125 37.703125 48 25 48 C 12.296875 48 2 37.703125 2 25 C 2 12.296875 12.296875 2 25 2 Z M 32.933594 34.375 C 33.355469 33.078125 35.339844 20.140625 35.585938 17.59375 C 35.65625 16.820312 35.414062 16.308594 34.9375 16.078125 C 34.359375 15.800781 33.503906 15.9375 32.507812 16.296875 C 31.148438 16.789062 13.734375 24.179688 12.730469 24.609375 C 11.773438 25.015625 10.871094 25.457031 10.871094 26.097656 C 10.871094 26.546875 11.140625 26.800781 11.875 27.0625 C 12.640625 27.335938 14.570312 27.921875 15.710938 28.234375 C 16.808594 28.535156 18.054688 28.273438 18.757812 27.839844 C 19.496094 27.378906 28.0625 21.648438 28.675781 21.144531 C 29.289062 20.644531 29.78125 21.285156 29.277344 21.789062 C 28.777344 22.292969 22.898438 27.996094 22.121094 28.785156 C 21.183594 29.746094 21.851562 30.738281 22.480469 31.136719 C 23.203125 31.59375 28.386719 35.070312 29.167969 35.628906 C 29.949219 36.1875 30.742188 36.4375 31.464844 36.4375 C 32.191406 36.4375 32.574219 35.484375 32.933594 34.375 Z M 32.933594 34.375 "/>
</g>
</svg>
