<?xml version="1.0" encoding="UTF-8"?>
<svg xmlns="http://www.w3.org/2000/svg" xmlns:xlink="http://www.w3.org/1999/xlink" viewBox="0 0 100 100" width="100px" height="100px">
<g id="surface8259145">
<path style=" stroke:none;fill-rule:nonzero;fill:rgb(100%,100%,100%);fill-opacity:1;" d="M 50 4 C 75.40625 4 96 24.59375 96 50 C 96 75.40625 75.40625 96 50 96 C 24.59375 96 4 75.40625 4 50 C 4 24.59375 24.59375 4 50 4 Z M 65.867188 68.75 C 66.714844 66.152344 70.679688 40.28125 71.167969 35.183594 C 71.316406 33.640625 70.828125 32.613281 69.871094 32.15625 C 68.714844 31.601562 67.003906 31.878906 65.019531 32.59375 C 62.292969 33.574219 27.46875 48.363281 25.457031 49.21875 C 23.550781 50.027344 21.746094 50.910156 21.746094 52.191406 C 21.746094 53.09375 22.28125 53.597656 23.753906 54.125 C 25.285156 54.671875 29.140625 55.839844 31.421875 56.46875 C 33.613281 57.074219 36.113281 56.546875 37.511719 55.679688 C 38.996094 54.757812 56.121094 43.296875 57.351562 42.292969 C 58.578125 41.289062 59.558594 42.574219 58.554688 43.578125 C 57.550781 44.585938 45.796875 55.992188 44.246094 57.574219 C 42.363281 59.492188 43.699219 61.480469 44.960938 62.277344 C 46.402344 63.183594 56.773438 70.140625 58.335938 71.257812 C 59.898438 72.371094 61.480469 72.878906 62.933594 72.878906 C 64.382812 72.878906 65.144531 70.96875 65.867188 68.75 Z M 65.867188 68.75 "/>
</g>
</svg>
