<svg width="65" height="65" viewBox="0 0 65 65" fill="none" xmlns="http://www.w3.org/2000/svg">
<path d="M1.25246 48.7505C3.99839 48.4153 6.78285 48.7764 9.52877 48.3253C10.9081 48.1062 12.1715 47.6421 13.422 47.1521C10.3281 45.167 7.54337 42.8981 4.95242 40.1781C4.02426 39.2111 4.6945 37.5868 6.0482 37.5483C7.15692 37.5998 8.23977 37.5098 9.29673 37.2904C6.60228 33.8742 4.51393 30.2001 2.88967 26.0749C2.45146 24.9662 3.74047 23.8448 4.78479 24.1798C5.39062 24.4248 6.00939 24.5924 6.64109 24.7212C4.72038 20.106 4.32071 15.4523 5.39062 10.3472C5.63559 9.17407 7.18251 8.89056 7.96891 9.66402C14.131 15.7226 21.9174 18.6362 30.2452 20.0284C29.5102 14.3304 33.5584 8.27151 38.8694 6.28611C43.2784 4.6489 49.1955 5.77056 52.1605 9.48317C54.1459 8.2327 56.8916 7.82009 59.0961 7.43336C60.2563 7.23985 61.3779 8.37445 60.6948 9.52171C59.8954 10.8625 59.1349 12.2932 58.297 13.6599C59.9987 13.157 61.752 12.8476 63.5051 12.6285C64.7685 12.4609 65.529 14.4074 64.5624 15.1809C62.5125 16.8181 60.4757 18.6874 58.297 20.1828C58.2326 34.6598 54.0042 46.8037 41.0742 55.0412C30.2966 61.9255 10.2634 60.7653 0.891604 51.3932H0.878666C0.46606 51.29 0.246959 50.9806 0.169613 50.6456C-0.191242 50.1042 0.0663913 49.434 0.543406 49.1761C0.723974 48.9567 0.956012 48.7891 1.25246 48.7505Z" fill="white"/>
</svg>
