<svg width="65" height="65" viewBox="0 0 65 65" fill="none" xmlns="http://www.w3.org/2000/svg">
<path d="M7.40824 51.4853L7.83874 50.4807L7.22585 49.5759C3.80487 44.5252 2 38.6379 2 32.5C2 24.3493 5.16969 16.6965 10.9331 10.9332C16.6966 5.1698 24.3494 2 32.5 2C40.6506 2 48.3035 5.16981 54.0667 10.9331C59.8301 16.6967 63 24.3494 63 32.5C63 40.6506 59.8301 48.3033 54.0667 54.0669C48.3035 59.8302 40.6506 63 32.5 63C26.1477 63 20.0939 61.0788 14.9358 57.4359L13.9794 56.7604L12.9222 57.2638L2.88308 62.0443L7.40824 51.4853Z" stroke="white" stroke-width="4"/>
<path d="M49.8153 43.4994L48.8412 38.2231C48.7605 37.7873 48.4229 37.4444 47.9883 37.3575L40.3281 35.8255C39.9723 35.7546 39.6056 35.8658 39.3494 36.1219L36.2373 39.234C30.9938 36.8845 28.0836 33.9682 25.5229 28.4995L28.625 25.3972C28.8812 25.1412 28.9923 24.7739 28.9213 24.4187L27.3893 16.7583C27.3023 16.3238 26.9594 15.9859 26.5236 15.9055L21.2473 14.9313C21.1028 14.9047 20.954 14.9076 20.8106 14.9402C19.4174 15.2568 18.1462 15.9588 17.1345 16.9707C15.3824 18.7228 14.7129 21.2793 15.1982 24.3641C16.013 29.5439 18.5509 36.7526 23.2329 41.4532L23.2967 41.5167C27.9941 46.1956 35.2026 48.7335 40.3824 49.5484C41.0349 49.6511 41.6636 49.702 42.2661 49.702C44.5124 49.702 46.3943 48.9935 47.7759 47.6121C48.7877 46.6002 49.4898 45.329 49.8063 43.9359C49.839 43.7926 49.8421 43.644 49.8153 43.4994Z" fill="white"/>
</svg>
