<svg width="60" height="60" viewBox="0 0 60 60" fill="none" xmlns="http://www.w3.org/2000/svg">
<path d="M29.9991 1.06978C13.6843 1.06978 0.454544 14.349 0.454544 30.7344C0.454544 43.8383 8.91884 54.9569 20.6636 58.8788C22.14 59.1524 22.6785 58.2365 22.6785 57.4492C22.6785 56.7458 22.6527 54.8806 22.6385 52.4045C14.4181 54.1992 12.6845 48.4283 12.6845 48.4283C11.3425 45.001 9.40591 44.0908 9.40591 44.0908C6.72199 42.2495 9.60791 42.2847 9.60791 42.2847C12.572 42.4934 14.1322 45.3432 14.1322 45.3432C16.7703 49.876 21.0496 48.5655 22.7327 47.8059C22.9986 45.8903 23.764 44.5816 24.6075 43.8411C18.0484 43.091 11.1519 40.5482 11.1519 29.1827C11.1519 25.9452 12.3023 23.2965 14.1923 21.2207C13.8863 20.4706 12.8732 17.4561 14.4801 13.3731C14.4801 13.3731 16.9619 12.5763 22.6051 16.4134C24.962 15.7558 27.4895 15.427 30.0028 15.4136C32.5105 15.427 35.0399 15.7548 37.4006 16.4134C43.0391 12.5763 45.5171 13.3731 45.5171 13.3731C47.1278 17.4561 46.1146 20.4706 45.8096 21.2207C47.7044 23.2965 48.8481 25.9442 48.8481 29.1827C48.8481 40.5768 41.9402 43.0835 35.3582 43.8192C36.419 44.7351 37.3635 46.544 37.3635 49.3127C37.3635 53.2795 37.3282 56.4761 37.3282 57.4492C37.3282 58.2441 37.861 59.1675 39.3593 58.875C51.0888 54.9454 59.5455 43.8345 59.5455 30.7344C59.5455 14.349 46.3157 1.06978 29.9991 1.06978Z" fill="white"/>
<path d="M29.9991 1.06978C13.6843 1.06978 0.454544 14.349 0.454544 30.7344C0.454544 43.8383 8.91884 54.9569 20.6636 58.8788C22.14 59.1524 22.6785 58.2365 22.6785 57.4492C22.6785 56.7458 22.6527 54.8806 22.6385 52.4045C14.4181 54.1992 12.6845 48.4283 12.6845 48.4283C11.3425 45.001 9.40591 44.0908 9.40591 44.0908C6.72199 42.2495 9.60791 42.2847 9.60791 42.2847C12.572 42.4934 14.1322 45.3432 14.1322 45.3432C16.7703 49.876 21.0496 48.5655 22.7327 47.8059C22.9986 45.8903 23.764 44.5816 24.6075 43.8411C18.0484 43.091 11.1519 40.5482 11.1519 29.1827C11.1519 25.9452 12.3023 23.2965 14.1923 21.2207C13.8863 20.4706 12.8732 17.4561 14.4801 13.3731C14.4801 13.3731 16.9619 12.5763 22.6051 16.4134C24.962 15.7558 27.4895 15.427 30.0028 15.4136C32.5105 15.427 35.0399 15.7548 37.4006 16.4134C43.0391 12.5763 45.5171 13.3731 45.5171 13.3731C47.1278 17.4561 46.1146 20.4706 45.8096 21.2207C47.7044 23.2965 48.8481 25.9442 48.8481 29.1827C48.8481 40.5768 41.9402 43.0835 35.3582 43.8192C36.419 44.7351 37.3635 46.544 37.3635 49.3127C37.3635 53.2795 37.3282 56.4761 37.3282 57.4492C37.3282 58.2441 37.861 59.1675 39.3593 58.875C51.0888 54.9454 59.5455 43.8345 59.5455 30.7344C59.5455 14.349 46.3157 1.06978 29.9991 1.06978Z" fill="white"/>
<path d="M45.5466 13.4557C47.1106 17.4948 46.1127 20.4761 45.8087 21.2205C47.7034 23.2963 48.8472 25.9439 48.8472 29.1825C48.8472 40.5765 41.9393 43.0831 35.3573 43.8189C36.418 44.7348 37.3625 46.5437 37.3625 49.3125C37.3625 53.2792 37.3273 56.4758 37.3273 57.4489C37.3273 58.2437 37.8601 59.1673 39.3583 58.8747C51.0888 54.9452 59.5455 43.8342 59.5455 30.7341C59.5455 27.2125 58.9316 23.8366 57.8099 20.7029C53.7365 16.4141 49.2026 13.5576 45.5466 13.4557Z" fill="white"/>
<path d="M23.4447 45.4069C23.7764 44.7378 24.1815 44.2175 24.6075 43.841C21.0125 43.4293 17.3203 42.4695 14.7135 39.8209C16.7188 43.1585 19.9841 44.6768 23.4447 45.4069Z" fill="white"/>
<path d="M1.99282 32.7339C1.99282 16.3486 15.2225 3.06933 31.5374 3.06933C40.5964 3.06933 48.6995 7.16662 54.1176 13.6114C48.7661 6.02483 39.9615 1.06978 29.9991 1.06978C13.6843 1.06978 0.454544 14.349 0.454544 30.7344C0.454544 38.0397 3.08981 44.7236 7.45396 49.8903C4.02192 45.0458 1.99282 39.131 1.99282 32.7339Z" fill="white"/>
<path d="M38.9008 51.3133C38.9008 48.5455 37.9563 46.7337 36.8955 45.8178C43.4774 45.0839 50.3864 42.5754 50.3864 31.1823C50.3864 27.9437 49.2426 25.2971 47.346 23.2213C47.6529 22.4712 48.668 19.4556 47.0535 15.3735C47.0535 15.3735 46.7465 15.2793 46.1127 15.3155C46.8047 18.3939 46.0632 20.5955 45.8087 21.2207C47.7034 23.2965 48.8472 25.9442 48.8472 29.1827C48.8472 40.5768 41.9392 43.0834 35.3573 43.8192C36.418 44.7351 37.3625 46.544 37.3625 49.3127C37.3625 53.2794 37.3273 56.4761 37.3273 57.4492C37.3273 58.1487 37.7437 58.9464 38.8665 58.9274C38.8741 57.5864 38.9008 54.7395 38.9008 51.3133Z" fill="white"/>
<path d="M14.4486 50.9673C15.0691 52.2444 17.1544 55.3037 22.6555 54.6595C22.6479 53.9865 22.6422 53.2327 22.6384 52.4045C18.3944 53.3309 15.8887 52.2386 14.4486 50.9673Z" fill="white"/>
<path d="M15.5094 47.0823C15.3197 46.7964 14.9642 46.3112 14.4486 45.8261C14.7831 46.3226 15.1386 46.7391 15.5094 47.0823Z" fill="white"/>
</svg>
