<svg width="60" height="60" viewBox="0 0 60 60" fill="none" xmlns="http://www.w3.org/2000/svg">
<path d="M30 0C13.4315 0 0 13.4315 0 30C0 46.5685 13.4315 60 30 60C46.5685 60 60 46.5685 60 30C60 13.4315 46.5685 0 30 0ZM30.7437 32.204C30.7437 38.4645 26.9892 43.7605 20.1968 43.7605C13.6614 43.7605 9.30288 38.0364 9.30288 30.5589C9.30288 22.4008 13.8326 17.6457 20.1968 17.6457C24.6815 17.6457 27.3272 19.1827 29.4231 22.3693L25.8353 24.4426C24.5959 22.4775 23.0995 21.7248 20.5394 21.7248C16.2665 21.7248 13.7876 24.4066 13.7876 30.5589C13.7876 35.8549 16.1809 39.7897 20.1968 39.7897C23.9558 39.7897 25.619 37.7163 25.619 34.3134H20.625V30.4868H30.7482V32.204H30.7437ZM44.1572 32.3437V39.7852H40.9029V32.3437H33.4615V29.0895H40.9029V21.6842H44.1572V29.0895H51.5625V32.3437H44.1572Z" fill="white"/>
</svg>
