<svg width="88" height="84" viewBox="0 0 88 84" fill="none" xmlns="http://www.w3.org/2000/svg">
<path d="M50.2793 20.2181C51.8479 17.0954 53.4172 13.971 55.3903 10H62.3418C59.5236 15.3145 56.3263 21.1434 53.1243 26.9806L53.1215 26.9858C49.9591 32.751 46.8021 38.5241 44.0001 43.8036L25.6801 10H32.5959L37.414 20.2934L43.1184 31.0084L44.0001 32.7248L44.8968 30.9831C46.9985 26.7498 48.6385 23.4848 50.2793 20.2181Z" fill="#1CD119" stroke="#1CD119"/>
<path d="M44.8796 49.4764L63.0003 17.2V27.2082L43.9989 62.2876L37.308 49.9764V39.6L43.1217 49.4776L44.0017 51.0968L44.8796 49.4764Z" fill="#1CD119" stroke="#1CD119"/>
<path d="M84 2.39999L44 78.4L4 2.39999H84Z" stroke="#1CD119" stroke-width="3"/>
</svg>
